<?xml version="1.0" encoding="utf-8"?>
<svg version="1.1" id="Layer_1"
xmlns="http://www.w3.org/2000/svg"
xmlns:xlink="http://www.w3.org/1999/xlink"
width="550px" height="400px"
xml:space="preserve">
<g id="PathID_1" transform="matrix(0.163129, -0.124094, 0.124094, 0.163129, 308.95, 258.15)" opacity="0.54">
<linearGradient
id="LinearGradID_1" gradientUnits="userSpaceOnUse" gradientTransform="matrix(-3.97522e-009, 0.0909424, -0.0909424, -3.97522e-009, 74.5, 56.05)" spreadMethod ="pad" x1="-819.2" y1="0" x2="819.2" y2="0" >
<stop  offset="0" style="stop-color:#007B25;stop-opacity:1" />
<stop  offset="0.505882" style="stop-color:#3CB761;stop-opacity:1" />
<stop  offset="1" style="stop-color:#007B25;stop-opacity:1" />
</linearGradient>
<path style="fill:url(#LinearGradID_1) " d="M149 25.5L149 86.6Q149 112.1 123.55 112.1L25.5 112.1Q0 112.1 0 86.6L0 25.5Q0 0 25.5 0L123.55 0Q149 0 149 25.5" />
</g>
<g id="PathID_2" transform="matrix(0.163129, -0.124094, 0.124094, 0.163129, 308.95, 258.15)" opacity="0.54">
</g>
<g id="PathID_3" transform="matrix(-1.11833, 0.481677, 0.481677, 1.11833, 319, 69.65)" opacity="0.37">
<linearGradient
id="LinearGradID_2" gradientUnits="userSpaceOnUse" gradientTransform="matrix(-3.97522e-009, 0.0909424, -0.0909424, -3.97522e-009, 74.5, 56.05)" spreadMethod ="pad" x1="-819.2" y1="0" x2="819.2" y2="0" >
<stop  offset="0" style="stop-color:#37DE6A;stop-opacity:1" />
<stop  offset="0.505882" style="stop-color:#73FFA6;stop-opacity:1" />
<stop  offset="1" style="stop-color:#37DE6A;stop-opacity:1" />
</linearGradient>
<path style="fill:url(#LinearGradID_2) " d="M149 25.5L149 86.6Q149 112.1 123.55 112.1L25.5 112.1Q0 112.1 0 86.6L0 25.5Q0 0 25.5 0L123.55 0Q149 0 149 25.5" />
</g>
<g id="PathID_4" transform="matrix(-1.11833, 0.481677, 0.481677, 1.11833, 319, 69.65)" opacity="0.37">
</g>
<g id="PathID_5" transform="matrix(1.19441, -0.23677, 0.23677, 1.19441, 161.25, 118.75)" opacity="1">
<linearGradient
id="LinearGradID_3" gradientUnits="userSpaceOnUse" gradientTransform="matrix(-3.97522e-009, 0.0909424, -0.0909424, -3.97522e-009, 74.5, 56.05)" spreadMethod ="pad" x1="-819.2" y1="0" x2="819.2" y2="0" >
<stop  offset="0" style="stop-color:#64DE89;stop-opacity:1" />
<stop  offset="0.505882" style="stop-color:#A0FFC5;stop-opacity:1" />
<stop  offset="1" style="stop-color:#64DE89;stop-opacity:1" />
</linearGradient>
<path style="fill:url(#LinearGradID_3) " d="M149 25.5L149 86.6Q149 112.1 123.55 112.1L25.5 112.1Q0 112.1 0 86.6L0 25.5Q0 0 25.5 0L123.55 0Q149 0 149 25.5" />
</g>
<g id="PathID_6" transform="matrix(1.19441, -0.23677, 0.23677, 1.19441, 161.25, 118.75)" opacity="1">
</g>
<filter id="filter7" x="-0.549524" y="-0.549524" width="2.29858" height="2.30504" >
<feComponentTransfer in="SourceGraphic">
	<feFuncR type="linear" slope="0"/>
	<feFuncG type="linear" slope="0"/>
	<feFuncB type="linear" slope="0"/>
</feComponentTransfer>
<feGaussianBlur stdDeviation="2 2" />
<feOffset result="1" dx="-3.53558" dy="-3.53549"/>
<feComponentTransfer in="SourceGraphic">
	<feFuncR type="linear" slope="0"/>
	<feFuncG type="linear" slope="0"/>
	<feFuncB type="linear" slope="0"/>
</feComponentTransfer>
<feGaussianBlur stdDeviation="2 2" />
<feOffset result="2" dx="3.53558" dy="3.53549"/>
<feComposite  in="1" in2="2" operator="arithmetic" k2="1" k3="-1"/>
<feComponentTransfer result="3">
	<feFuncR type="linear" Ue="0" intercept="0.231373"/>
	<feFuncG type="linear" Ue="0" intercept="0.780392"/>
	<feFuncB type="linear" Ue="0" intercept="0.396078"/>
	<feFuncA type="linear" xh="0" slope="1"/>
</feComponentTransfer>
<feComposite  in="2" in2="1" operator="arithmetic" k2="1" k3="-1"/>
<feComponentTransfer result="4">
	<feFuncR type="linear" Ue="0" intercept="0"/>
	<feFuncG type="linear" Ue="0" intercept="0.0823529"/>
	<feFuncB type="linear" Ue="0" intercept="0.0235294"/>
	<feFuncA type="linear" xh="0" slope="1"/>
</feComponentTransfer>
<feComposite result="5"  in="3" in2="4" operator="arithmetic" k2="1" k3="1"/>
<feComposite result="6"  in="5" in2="SourceGraphic" operator="atop"/>
</filter>
<g style="filter:url(#filter7);">
<g id="PathID_7" transform="matrix(1.21765, 0, 0, 1.21765, 172.75, 99.75)" opacity="0.8">
<linearGradient
id="LinearGradID_4" gradientUnits="userSpaceOnUse" gradientTransform="matrix(-3.97522e-009, 0.0909424, -0.0909424, -3.97522e-009, 74.5, 56.05)" spreadMethod ="pad" x1="-819.2" y1="0" x2="819.2" y2="0" >
<stop  offset="0" style="stop-color:#007B25;stop-opacity:1" />
<stop  offset="0.505882" style="stop-color:#3CB761;stop-opacity:1" />
<stop  offset="1" style="stop-color:#007B25;stop-opacity:1" />
</linearGradient>
<path style="fill:url(#LinearGradID_4) " d="M149 25.5L149 86.6Q149 112.1 123.55 112.1L25.5 112.1Q0 112.1 0 86.6L0 25.5Q0 0 25.5 0L123.55 0Q149 0 149 25.5" />
</g>
<g id="PathID_8" transform="matrix(1.21765, 0, 0, 1.21765, 172.75, 99.75)" opacity="0.8">
</g>
</g>
<filter id="filter10" x="-0.529762" y="-0.529762" width="2.23952" height="2.26655" >
<feComponentTransfer in="SourceGraphic">
	<feFuncR type="linear" slope="0"/>
	<feFuncG type="linear" slope="0"/>
	<feFuncB type="linear" slope="0"/>
</feComponentTransfer>
<feGaussianBlur stdDeviation="1 1" />
<feOffset dx="3.2413e-005" dy="3"/>
<feComponentTransfer result="8">
	<feFuncR type="linear" Ue="0" intercept="0.0941176"/>
	<feFuncG type="linear" Ue="0" intercept="0"/>
	<feFuncB type="linear" Ue="0" intercept="0.192157"/>
	<feFuncA type="linear" xh="0" slope="0.5"/>
</feComponentTransfer>
<feComposite result="9"  in="SourceGraphic" in2="8" operator="over"/>
</filter>
<g style="filter:url(#filter10);">
<g id="PathID_9" transform="matrix(1.56963, 0, 0, 1.56963, 188.8, 186.9)" opacity="1">
<linearGradient
id="LinearGradID_5" gradientUnits="userSpaceOnUse" gradientTransform="matrix(-2.51775e-009, 0.0575994, -0.0283854, -1.24077e-009, 47.75, -9.8)" spreadMethod ="pad" x1="-819.2" y1="0" x2="819.2" y2="0" >
<stop  offset="0" style="stop-color:#FFFFFF;stop-opacity:1" />
<stop  offset="0.505882" style="stop-color:#FFFFFF;stop-opacity:1" />
<stop  offset="1" style="stop-color:#FFFFFF;stop-opacity:1" />
</linearGradient>
<path style="fill:url(#LinearGradID_5) " d="M31.65 -23.55L28.6 -6.9Q31.15 -8.4 36.55 -12L40.75 -14.7Q43.3 -16.35 45 -17.3Q48.05 -19.1 49.8 -20.35Q48.45 -21.9 47.3 -22.6Q46.2 -23.25 44 -23.7Q41.85 -24.2 38.95 -24.2Q35.6 -24.2 31.65 -23.55M13.2 -20.8L18.3 -29.05Q29.8 -33.05 39.55 -33.05Q44.75 -33.05 48.45 -31.75Q52.2 -30.4 53.95 -28.9Q55.75 -27.35 55.75 -25.75Q55.75 -22.5 51.05 -17.75Q49.45 -16.15 47.4 -14.6Q45.4 -13.1 43 -11.65Q40.6 -10.2 37.55 -8.75Q39.3 -8.95 40.35 -8.95Q43.05 -8.95 46.2 -8.1Q49.25 -7.3 51.25 -6.3Q53.3 -5.3 54.05 -4.15Q54.8 -3 54.8 -1.1Q54.8 2.65 52.6 6.2Q50.45 9.75 47.25 11.6Q44.05 13.45 41.05 13.45Q37.25 13.45 31.1 11.35L30.1 7.55L34.15 0.1Q34.95 3.05 38.4 4.85Q41.85 6.6 45.1 6.6Q46.4 6.6 48.65 6.3Q47.35 1.55 43 -0.75Q38.65 -3 33.9 -3Q31.55 -3 27.75 -2.6Q26.85 2.35 21.3 6.75Q15.8 11.1 11.3 11.1Q5.95 11.1 0.65 0.1Q1.9 -8 2.8 -10.5Q7.1 -3.95 11.7 -0.65Q16.35 2.6 19.85 2.6Q21.55 2.6 22.65 1.75Q23.7 0.95 24.05 -0.25Q24.35 -1.4 25.4 -9.2L27.25 -23.3Q22.05 -22.95 13.2 -20.8" />
</g>
<g id="PathID_10" transform="matrix(1.56963, 0, 0, 1.56963, 188.8, 186.9)" opacity="1">
</g>
<g id="PathID_11" transform="matrix(1.56963, 0, 0, 1.56963, 276.65, 186.9)" opacity="1">
<linearGradient
id="LinearGradID_6" gradientUnits="userSpaceOnUse" gradientTransform="matrix(-2.51775e-009, 0.0575994, -0.0283854, -1.24077e-009, -8.15, -9.8)" spreadMethod ="pad" x1="-819.2" y1="0" x2="819.2" y2="0" >
<stop  offset="0" style="stop-color:#FFFFFF;stop-opacity:1" />
<stop  offset="0.505882" style="stop-color:#FFFFFF;stop-opacity:1" />
<stop  offset="1" style="stop-color:#FFFFFF;stop-opacity:1" />
</linearGradient>
<path style="fill:url(#LinearGradID_6) " d="M0.5 -14.05L1.15 -17.2Q6.2 -18 12.7 -21.1L12.7 -16.65L12.6 -14.8L12.65 -14.1L12.65 -11.85L12.7 -10.8L12.85 -6.4L13.25 0Q8.1 0.9 4.3 1.35Q4.65 -1.8 4.65 -8L4.55 -14.3Q3.5 -13.9 2.3 -13.9Q1.4 -13.9 0.5 -14.05M7.9 -32.5Q9.75 -32.5 11.15 -31.15Q12.5 -29.85 12.5 -27.85Q12.5 -26 11.15 -24.65Q9.75 -23.3 7.9 -23.3Q6 -23.3 4.65 -24.65Q3.3 -25.95 3.3 -27.85Q3.3 -29.75 4.65 -31.1Q6 -32.5 7.9 -32.5" />
</g>
<g id="PathID_12" transform="matrix(1.56963, 0, 0, 1.56963, 276.65, 186.9)" opacity="1">
</g>
<g id="PathID_13" transform="matrix(1.56963, 0, 0, 1.56963, 301.75, 186.9)" opacity="1">
<linearGradient
id="LinearGradID_7" gradientUnits="userSpaceOnUse" gradientTransform="matrix(-2.51775e-009, 0.0575994, -0.0283854, -1.24077e-009, -24.15, -9.8)" spreadMethod ="pad" x1="-819.2" y1="0" x2="819.2" y2="0" >
<stop  offset="0" style="stop-color:#FFFFFF;stop-opacity:1" />
<stop  offset="0.505882" style="stop-color:#FFFFFF;stop-opacity:1" />
<stop  offset="1" style="stop-color:#FFFFFF;stop-opacity:1" />
</linearGradient>
<path style="fill:url(#LinearGradID_7) " d="M9.05 -15.05L9.6 -5.25Q10.95 -6.75 12.3 -8.65Q13.65 -10.55 14.6 -12.25Q13.25 -14.2 9.05 -15.05M9.15 -21.1L13.65 -20.2Q17.4 -19.5 18.6 -19.15Q19.8 -18.7 20.85 -17.8Q21.9 -16.85 22.4 -15.2Q22.95 -13.55 22.95 -10.7L22.8 -3.35Q22.8 -2.05 23.05 -0.3Q20.75 0.1 14.55 1.85Q15 -1.55 15 -7.6Q14.55 -6.9 12.5 -4.65Q10.45 -2.4 6.65 1.5Q3.75 0.75 2.15 0L1.75 -2.95Q1.35 -6.05 1.35 -8.6Q1.35 -12.25 2.85 -14.75Q4.35 -17.2 9.15 -21.1" />
</g>
<g id="PathID_14" transform="matrix(1.56963, 0, 0, 1.56963, 301.75, 186.9)" opacity="1">
</g>
</g>
<g id="PathID_15" transform="matrix(0.26692, -0.143959, 0.143959, 0.26692, 282.4, 245.2)" opacity="0.37">
<linearGradient
id="LinearGradID_8" gradientUnits="userSpaceOnUse" gradientTransform="matrix(-3.97522e-009, 0.0909424, -0.0909424, -3.97522e-009, 74.5, 56.05)" spreadMethod ="pad" x1="-819.2" y1="0" x2="819.2" y2="0" >
<stop  offset="0" style="stop-color:#007B25;stop-opacity:1" />
<stop  offset="0.505882" style="stop-color:#3CB761;stop-opacity:1" />
<stop  offset="1" style="stop-color:#007B25;stop-opacity:1" />
</linearGradient>
<path style="fill:url(#LinearGradID_8) " d="M149 25.5L149 86.6Q149 112.1 123.55 112.1L25.5 112.1Q0 112.1 0 86.6L0 25.5Q0 0 25.5 0L123.55 0Q149 0 149 25.5" />
</g>
<g id="PathID_16" transform="matrix(0.26692, -0.143959, 0.143959, 0.26692, 282.4, 245.2)" opacity="0.37">
</g>
</svg>
